<svg width="30" height="16" viewBox="0 0 30 16" fill="none" xmlns="http://www.w3.org/2000/svg">
<path d="M29.7071 1.70711C30.0976 1.31658 30.0976 0.683417 29.7071 0.292893C29.3166 -0.0976311 28.6834 -0.0976311 28.2929 0.292893L29.7071 1.70711ZM15 15L14.2929 15.7071C14.4804 15.8946 14.7348 16 15 16C15.2652 16 15.5196 15.8946 15.7071 15.7071L15 15ZM1.70711 0.292893C1.31658 -0.0976311 0.683417 -0.0976311 0.292893 0.292893C-0.0976311 0.683418 -0.0976311 1.31658 0.292893 1.70711L1.70711 0.292893ZM28.2929 0.292893L14.2929 14.2929L15.7071 15.7071L29.7071 1.70711L28.2929 0.292893ZM15.7071 14.2929L1.70711 0.292893L0.292893 1.70711L14.2929 15.7071L15.7071 14.2929Z" fill="black"/>
</svg>
