<svg width="60" height="60" viewBox="0 0 60 60" fill="none" xmlns="http://www.w3.org/2000/svg">
<circle cx="30" cy="30" r="30" fill="#101010"/>
<path d="M44.9688 44.9687V27.3095C44.9688 27.1136 44.9278 26.9198 44.8485 26.7406C44.7693 26.5614 44.6534 26.4008 44.5085 26.269L30.445 13.4835C30.1861 13.2482 29.8488 13.1178 29.499 13.1178C29.1491 13.1178 28.8118 13.2482 28.553 13.4836L14.4915 26.269C14.3465 26.4008 14.2307 26.5614 14.1514 26.7406C14.0722 26.9198 14.0312 27.1135 14.0313 27.3095V44.9687" stroke="#F5F5F5" stroke-width="2" stroke-linecap="round" stroke-linejoin="round"/>
<path d="M9.8125 44.9688H49.1875" stroke="#F5F5F5" stroke-width="2" stroke-linecap="round" stroke-linejoin="round"/>
<path d="M33.7177 44.9673V35.1235C33.7177 34.7506 33.5696 34.3929 33.3058 34.1292C33.0421 33.8654 32.6844 33.7173 32.3115 33.7173H26.6865C26.3135 33.7173 25.9558 33.8654 25.6921 34.1292C25.4284 34.3929 25.2802 34.7506 25.2802 35.1235V44.9673" stroke="#F5F5F5" stroke-width="2" stroke-linecap="round" stroke-linejoin="round"/>
</svg>
