<svg width="16" height="60" viewBox="0 0 16 60" fill="none" xmlns="http://www.w3.org/2000/svg">
<path d="M1.89717 0.870292C1.65323 0.374801 1.0538 0.170879 0.558307 0.414817C0.0628155 0.65876 -0.141107 1.25819 0.102834 1.75368L1.89717 0.870292ZM15 29.7487L15.8972 30.1904C16.0343 29.9119 16.0343 29.5855 15.8972 29.307L15 29.7487ZM0.102834 57.7438C-0.141107 58.2393 0.0628155 58.8387 0.558307 59.0827C1.0538 59.3266 1.65323 59.1227 1.89717 58.6272L0.102834 57.7438ZM0.102834 1.75368L14.1028 30.1904L15.8972 29.307L1.89717 0.870292L0.102834 1.75368ZM14.1028 29.307L0.102834 57.7438L1.89717 58.6272L15.8972 30.1904L14.1028 29.307Z" fill="black"/>
</svg>
