<svg width="16" height="60" viewBox="0 0 16 60" fill="none" xmlns="http://www.w3.org/2000/svg">
<path d="M14.1028 58.6271C14.3468 59.1226 14.9462 59.3266 15.4417 59.0826C15.9372 58.8387 16.1411 58.2392 15.8972 57.7438L14.1028 58.6271ZM1 29.7487L0.102834 29.307C-0.0342779 29.5855 -0.0342779 29.9119 0.102834 30.1904L1 29.7487ZM15.8972 1.75364C16.1411 1.25815 15.9372 0.658725 15.4417 0.414785C14.9462 0.170844 14.3468 0.374766 14.1028 0.870257L15.8972 1.75364ZM15.8972 57.7438L1.89717 29.307L0.102834 30.1904L14.1028 58.6271L15.8972 57.7438ZM1.89717 30.1904L15.8972 1.75364L14.1028 0.870257L0.102834 29.307L1.89717 30.1904Z" fill="black"/>
</svg>
